<svg width="475" height="168" viewBox="0 0 475 168" fill="none" xmlns="http://www.w3.org/2000/svg">
<path d="M71.7686 205.539C71.7686 124.892 137.146 59.5151 217.793 59.5151H357.905V208.495C357.905 287.51 293.851 351.564 214.837 351.564C135.822 351.564 71.7686 287.51 71.7686 208.495V205.539Z" fill="#1E31AA"/>
<path d="M258.585 200.219C258.585 156.467 294.644 120.999 338.396 120.999C382.148 120.999 418.207 156.467 418.207 200.219C418.207 243.971 382.148 279.438 338.396 279.438C294.644 279.438 258.585 243.971 258.585 200.219Z" fill="#5278FF"/>
<path d="M413.477 59.5151V105.628C416.407 93.5858 426.191 84.3465 438.307 82.5716C426.191 80.7967 416.407 71.5574 413.477 59.5151Z" fill="#FFC061"/>
<path d="M220.749 25.2258V92.6217C225.214 75.0214 240.123 61.5178 258.585 58.9238C240.123 56.3297 225.214 42.8261 220.749 25.2258Z" fill="#C0D6FF"/>
<path d="M51.668 65V274.282C65.4825 219.628 111.607 177.696 168.724 169.641C111.607 161.586 65.4825 119.654 51.668 65Z" fill="#42B55B"/>
<path d="M441.854 52.4207V116.269C445.762 99.5954 458.807 86.8025 474.961 84.345C458.807 81.8875 445.762 69.0946 441.854 52.4207Z" fill="#FE7A50"/>
</svg>
