<svg width="40" height="40" viewBox="0 0 40 40" fill="none" xmlns="http://www.w3.org/2000/svg">
<path d="M0 30C0 24.4772 4.47715 20 10 20H20V30C20 35.5228 15.5228 40 10 40V40C4.47715 40 0 35.5228 0 30V30Z" fill="#73DB71"/>
<rect x="20" y="20" width="20" height="20" rx="10" fill="#323B62"/>
<path d="M20 10C20 4.47715 24.4772 0 30 0V0C35.5228 0 40 4.47715 40 10V10C40 15.5228 35.5228 20 30 20V20C24.4772 20 20 15.5228 20 10V10Z" fill="#C0D6FF"/>
<rect width="20" height="20" rx="10" fill="#323B62"/>
</svg>
