<svg width="40" height="40" viewBox="0 0 40 40" fill="none" xmlns="http://www.w3.org/2000/svg">
<path d="M20 30C20 24.4772 24.4772 20 30 20H40V30C40 35.5228 35.5228 40 30 40V40C24.4772 40 20 35.5228 20 30V30Z" fill="#C0D6FF"/>
<path d="M0 30C0 24.4772 4.47715 20 10 20H20V30C20 35.5228 15.5228 40 10 40V40C4.47715 40 0 35.5228 0 30V30Z" fill="#323B62"/>
<path d="M0 10C0 4.47715 4.47715 0 10 0V0C15.5228 0 20 4.47715 20 10V20H0V10Z" fill="#73DB71"/>
<rect x="20" width="20" height="20" rx="10" fill="#323B62"/>
</svg>
